Coordinates
version=1
nRows=5
nColumns=40
inDegrees=yes

Units are S.I. units (second, meters, Newtons, ...)
Angles are in degrees.

endheader
time	pelvis_tilt	pelvis_list	pelvis_rotation	pelvis_tx	pelvis_ty	pelvis_tz	hip_flexion_r	hip_adduction_r	hip_rotation_r	knee_angle_r	knee_angle_r_beta	ankle_angle_r	subtalar_angle_r	mtp_angle_r	hip_flexion_l	hip_adduction_l	hip_rotation_l	knee_angle_l	knee_angle_l_beta	ankle_angle_l	subtalar_angle_l	mtp_angle_l	lumbar_extension	lumbar_bending	lumbar_rotation	arm_flex_r	arm_add_r	arm_rot_r	elbow_flex_r	pro_sup_r	wrist_flex_r	wrist_dev_r	arm_flex_l	arm_add_l	arm_rot_l	elbow_flex_l	pro_sup_l	wrist_flex_l	wrist_dev_l
     49.73000000	     -3.16986985	     -5.19298074	      0.93351458	      1.07944336	      0.93236201	      0.41715722	     25.00576195	     -6.42962705	     -6.12199872	     62.82850449	     62.82850449	      2.77422636	    -13.61153345	      0.08116115	     15.93149515	     -7.05125040	     -9.46988983	     23.70214650	     23.70214650	     12.65744515	    -10.75431709	     -0.10876951	     -9.67931237	      5.18185781	      0.92915769	     16.13910266	    -11.42822136	      2.72830220	     68.69135321	     42.60968801	      0.00000000	      0.00000000	     11.70863219	    -13.70529877	      3.72706664	     44.52893273	     43.01378026	      0.00000000	      0.00000000
     49.74321429	     -3.11004935	     -5.32055285	      0.39226486	      1.07896559	      0.93327542	      0.41695616	     25.81461780	     -6.21819128	     -5.92015007	     61.60123879	     61.60123879	      2.72100763	    -13.94299475	      0.12600702	     15.08570368	     -7.16702881	     -9.79078569	     23.11940005	     23.11940005	     12.81089421	    -10.91696569	     -0.03081255	     -9.79441762	      5.34150781	      1.41206198	     14.39807995	    -12.04357713	      2.87826098	     66.47108201	     42.71402419	      0.00000000	      0.00000000	     12.84712344	    -13.68671416	      3.47015983	     45.57463448	     43.10383245	      0.00000000	      0.00000000
     49.75642857	     -3.04542163	     -5.46435596	     -0.12156885	      1.07850431	      0.93407646	      0.41680810	     26.51353015	     -5.96123236	     -5.75394735	     60.19115969	     60.19115969	      2.62392053	    -14.31738290	      0.09997413	     14.26769727	     -7.30503357	    -10.13541642	     22.58985421	     22.58985421	     12.93658237	    -11.04360087	     -0.08771788	     -9.90583067	      5.49659250	      1.74780045	     12.95988104	    -12.45195883	      2.91439719	     63.57859135	     42.85338446	      0.00000000	      0.00000000	     13.81259505	    -13.72566653	      3.15988419	     46.90529491	     43.20595690	      0.00000000	      0.00000000
     49.76964286	     -3.03778121	     -5.60867566	     -0.58765087	      1.07808000	      0.93476680	      0.41667354	     27.10311085	     -5.71110892	     -5.68842867	     58.45313700	     58.45313700	      2.30374692	    -14.71448863	     -0.51357807	     13.50248154	     -7.42402219	    -10.43273414	     22.00718730	     22.00718730	     12.85829093	    -11.23105311	     -0.64186399	     -9.87888226	      5.66557766	      0.98661282	     13.07540701	    -11.79334420	      2.85396424	     57.72080024	     43.22461783	      0.00000000	      0.00000000	     13.67448139	    -14.37076568	      2.17641023	     49.36380391	     43.52003917	      0.00000000	      0.00000000
     49.78285714	     -2.98117570	     -5.75490139	     -1.06806403	      1.07766143	      0.93541876	      0.41665558	     27.55424496	     -5.41454848	     -5.60205419	     56.51368884	     56.51368884	      2.28581211	    -14.90541611	     -0.31932871	     12.71179213	     -7.55389071	    -10.77993859	     21.49445823	     21.49445823	     13.00443581	    -11.32875903	     -0.66352201	    -10.02798488	      5.85029084	      1.46704126	     11.45604371	    -12.43698490	      3.03296716	     55.56202257	     43.32172520	      0.00000000	      0.00000000	     14.71062447	    -14.32920380	      1.73259458	     50.71058511	     43.62597814	      0.00000000	      0.00000000
